<svg width="145" height="20" viewBox="0 0 145 20" fill="none" xmlns="http://www.w3.org/2000/svg">
<path d="M8.294 0.992024H11.596L13.676 7.10202L15.756 0.992024H19.084L15.938 9.39002L18.278 15.292L23.504 0.940023H27.404L19.89 19.4H16.874L13.676 11.652L10.478 19.4H7.462L0 0.940023H3.848L9.1 15.292L11.388 9.39002L8.294 0.992024ZM34.3793 19.66C33.2873 19.66 32.2993 19.478 31.4153 19.114C30.5313 18.7327 29.7773 18.2214 29.1533 17.58C28.5293 16.9387 28.044 16.1934 27.6973 15.344C27.368 14.4947 27.2033 13.602 27.2033 12.666C27.2033 11.6954 27.368 10.7854 27.6973 9.93602C28.0266 9.06936 28.5033 8.31536 29.1273 7.67402C29.7513 7.01536 30.5053 6.49536 31.3893 6.11402C32.2906 5.73269 33.296 5.54202 34.4053 5.54202C35.5146 5.54202 36.5026 5.73269 37.3693 6.11402C38.2533 6.49536 38.9986 7.00669 39.6053 7.64802C40.2293 8.28936 40.6973 9.03469 41.0093 9.88402C41.3386 10.7334 41.5033 11.6174 41.5033 12.536C41.5033 12.7614 41.4946 12.978 41.4773 13.186C41.4773 13.394 41.46 13.5674 41.4253 13.706H30.8953C30.9473 14.2434 31.0773 14.72 31.2853 15.136C31.4933 15.552 31.762 15.9074 32.0913 16.202C32.4206 16.4967 32.7933 16.722 33.2093 16.878C33.6253 17.034 34.0586 17.112 34.5093 17.112C35.2026 17.112 35.8526 16.9474 36.4593 16.618C37.0833 16.2714 37.508 15.8207 37.7333 15.266L40.7233 16.098C40.2206 17.138 39.4146 17.996 38.3053 18.672C37.2133 19.3307 35.9046 19.66 34.3793 19.66ZM37.9153 11.444C37.8286 10.4214 37.4473 9.60669 36.7713 9.00002C36.1126 8.37602 35.3066 8.06402 34.3533 8.06402C33.8853 8.06402 33.4433 8.15069 33.0273 8.32402C32.6286 8.48002 32.2733 8.70536 31.9613 9.00002C31.6493 9.29469 31.3893 9.65002 31.1813 10.066C30.9906 10.482 30.878 10.9414 30.8433 11.444H37.9153ZM52.1538 19.66C51.1138 19.66 50.1864 19.426 49.3718 18.958C48.5571 18.49 47.9158 17.8487 47.4478 17.034V19.4H44.4058V0.420024H47.8898V8.16802C48.3751 7.33602 49.0078 6.69469 49.7878 6.24402C50.5851 5.77602 51.5124 5.54202 52.5698 5.54202C53.4538 5.54202 54.2598 5.73269 54.9878 6.11402C55.7158 6.49536 56.3398 7.00669 56.8598 7.64802C57.3971 8.28936 57.8044 9.04336 58.0818 9.91002C58.3764 10.7767 58.5238 11.6867 58.5238 12.64C58.5238 13.628 58.3591 14.5467 58.0298 15.396C57.7178 16.2454 57.2758 16.9907 56.7038 17.632C56.1318 18.256 55.4558 18.75 54.6758 19.114C53.8958 19.478 53.0551 19.66 52.1538 19.66ZM51.1918 16.696C51.7464 16.696 52.2578 16.592 52.7258 16.384C53.1938 16.1587 53.5924 15.864 53.9218 15.5C54.2511 15.136 54.5024 14.7114 54.6758 14.226C54.8664 13.7407 54.9618 13.2207 54.9618 12.666C54.9618 12.1114 54.8751 11.5827 54.7018 11.08C54.5284 10.5774 54.2771 10.1354 53.9478 9.75402C53.6358 9.37269 53.2631 9.06936 52.8298 8.84402C52.3964 8.61869 51.9198 8.50602 51.3998 8.50602C50.6198 8.50602 49.9178 8.76602 49.2938 9.28602C48.6871 9.78869 48.2191 10.4127 47.8898 11.158V14.408C48.0111 14.7547 48.1844 15.0667 48.4098 15.344C48.6524 15.6214 48.9211 15.864 49.2158 16.072C49.5104 16.2627 49.8311 16.4187 50.1778 16.54C50.5244 16.644 50.8624 16.696 51.1918 16.696Z" fill="#2196F3"/>
<path d="M73.0003 5.77602C72.8789 5.65469 72.6536 5.49002 72.3243 5.28202C72.0123 5.07402 71.6223 4.87469 71.1543 4.68402C70.7036 4.47602 70.2096 4.30269 69.6723 4.16402C69.1349 4.02536 68.5889 3.95602 68.0343 3.95602C67.0463 3.95602 66.3096 4.13802 65.8243 4.50202C65.3389 4.86602 65.0963 5.37736 65.0963 6.03602C65.0963 6.41736 65.1829 6.73802 65.3563 6.99802C65.5469 7.24069 65.8156 7.45736 66.1623 7.64802C66.5089 7.83869 66.9423 8.01202 67.4623 8.16802C67.9996 8.32402 68.6149 8.48869 69.3083 8.66202C70.2096 8.90469 71.0243 9.16469 71.7523 9.44202C72.4976 9.71936 73.1216 10.066 73.6243 10.482C74.1443 10.898 74.5429 11.4007 74.8203 11.99C75.0976 12.562 75.2363 13.2727 75.2363 14.122C75.2363 15.11 75.0456 15.9594 74.6643 16.67C74.3003 17.3634 73.7976 17.9267 73.1563 18.36C72.5323 18.7934 71.8043 19.114 70.9723 19.322C70.1576 19.5127 69.2996 19.608 68.3983 19.608C67.0116 19.608 65.6423 19.4 64.2903 18.984C62.9383 18.568 61.7249 17.9787 60.6503 17.216L62.2363 14.122C62.3923 14.278 62.6696 14.486 63.0683 14.746C63.4843 14.9887 63.9696 15.24 64.5243 15.5C65.0789 15.7427 65.6943 15.9507 66.3703 16.124C67.0463 16.2974 67.7396 16.384 68.4503 16.384C70.4263 16.384 71.4143 15.7514 71.4143 14.486C71.4143 14.0874 71.3016 13.7494 71.0763 13.472C70.8509 13.1947 70.5303 12.952 70.1143 12.744C69.6983 12.536 69.1956 12.3454 68.6063 12.172C68.0169 11.9987 67.3583 11.808 66.6303 11.6C65.7463 11.3574 64.9749 11.0974 64.3163 10.82C63.6749 10.5254 63.1376 10.1874 62.7043 9.80602C62.2709 9.40736 61.9416 8.95669 61.7163 8.45402C61.5083 7.93402 61.4043 7.31869 61.4043 6.60802C61.4043 5.67202 61.5776 4.84002 61.9243 4.11202C62.2709 3.38402 62.7476 2.77736 63.3543 2.29202C63.9783 1.80669 64.6976 1.44269 65.5123 1.20002C66.3269 0.940023 67.2023 0.810024 68.1383 0.810024C69.4383 0.810024 70.6343 1.01802 71.7263 1.43402C72.8183 1.83269 73.7716 2.30936 74.5863 2.86402L73.0003 5.77602ZM86.4013 18.698C85.9333 18.906 85.3613 19.114 84.6853 19.322C84.0093 19.53 83.2986 19.634 82.5533 19.634C82.0679 19.634 81.6086 19.5734 81.1753 19.452C80.7593 19.3307 80.3866 19.14 80.0573 18.88C79.7453 18.6027 79.4939 18.256 79.3033 17.84C79.1126 17.4067 79.0173 16.8867 79.0173 16.28V8.45402H77.2233V5.77602H79.0173V1.35602H82.5013V5.77602H85.3613V8.45402H82.5013V15.11C82.5013 15.5954 82.6226 15.942 82.8653 16.15C83.1253 16.3407 83.4373 16.436 83.8013 16.436C84.1653 16.436 84.5206 16.3754 84.8673 16.254C85.2139 16.1327 85.4913 16.0287 85.6993 15.942L86.4013 18.698ZM93.1558 19.66C91.7518 19.66 90.6858 19.2094 89.9578 18.308C89.2298 17.4067 88.8658 16.072 88.8658 14.304V5.77602H92.3498V13.55C92.3498 15.6474 93.1038 16.696 94.6118 16.696C95.2878 16.696 95.9378 16.4967 96.5618 16.098C97.2031 15.682 97.7231 15.058 98.1218 14.226V5.77602H101.606V15.396C101.606 15.76 101.666 16.02 101.788 16.176C101.926 16.332 102.143 16.4187 102.438 16.436V19.4C102.091 19.4694 101.796 19.5127 101.554 19.53C101.328 19.5474 101.12 19.556 100.93 19.556C100.306 19.556 99.7944 19.4174 99.3958 19.14C99.0144 18.8454 98.7891 18.4467 98.7198 17.944L98.6418 16.852C98.0351 17.788 97.2551 18.49 96.3018 18.958C95.3484 19.426 94.2998 19.66 93.1558 19.66ZM111.49 19.66C110.554 19.66 109.687 19.478 108.89 19.114C108.093 18.75 107.408 18.2474 106.836 17.606C106.264 16.9647 105.813 16.2194 105.484 15.37C105.172 14.5034 105.016 13.576 105.016 12.588C105.016 11.6 105.163 10.6814 105.458 9.83202C105.77 8.98269 106.195 8.23736 106.732 7.59602C107.269 6.95469 107.911 6.45202 108.656 6.08802C109.401 5.72402 110.216 5.54202 111.1 5.54202C112.105 5.54202 113.007 5.78469 113.804 6.27002C114.619 6.75536 115.251 7.38802 115.702 8.16802V0.420024H119.186V15.396C119.186 15.76 119.247 16.02 119.368 16.176C119.489 16.332 119.697 16.4187 119.992 16.436V19.4C119.385 19.5214 118.891 19.582 118.51 19.582C117.886 19.582 117.375 19.426 116.976 19.114C116.577 18.802 116.352 18.3947 116.3 17.892L116.222 17.034C115.719 17.9007 115.035 18.5594 114.168 19.01C113.319 19.4434 112.426 19.66 111.49 19.66ZM112.4 16.696C112.729 16.696 113.067 16.644 113.414 16.54C113.761 16.4187 114.081 16.254 114.376 16.046C114.671 15.838 114.931 15.5954 115.156 15.318C115.399 15.0407 115.581 14.7374 115.702 14.408V11.158C115.563 10.7767 115.364 10.43 115.104 10.118C114.861 9.78869 114.575 9.51136 114.246 9.28602C113.934 9.04336 113.596 8.85269 113.232 8.71402C112.885 8.57536 112.539 8.50602 112.192 8.50602C111.672 8.50602 111.187 8.61869 110.736 8.84402C110.303 9.06936 109.93 9.38136 109.618 9.78002C109.306 10.1614 109.063 10.6034 108.89 11.106C108.717 11.6087 108.63 12.1287 108.63 12.666C108.63 13.238 108.725 13.7667 108.916 14.252C109.107 14.7374 109.367 15.162 109.696 15.526C110.025 15.89 110.415 16.176 110.866 16.384C111.334 16.592 111.845 16.696 112.4 16.696ZM123.386 19.4V5.77602H126.87V19.4H123.386ZM123.386 3.87802V0.420024H126.87V3.87802H123.386ZM137.085 19.66C135.975 19.66 134.979 19.4694 134.095 19.088C133.211 18.7067 132.457 18.1954 131.833 17.554C131.226 16.8954 130.758 16.1414 130.429 15.292C130.099 14.4427 129.935 13.55 129.935 12.614C129.935 11.6607 130.099 10.7594 130.429 9.91002C130.758 9.06069 131.226 8.31536 131.833 7.67402C132.457 7.01536 133.211 6.49536 134.095 6.11402C134.979 5.73269 135.975 5.54202 137.085 5.54202C138.194 5.54202 139.182 5.73269 140.049 6.11402C140.933 6.49536 141.678 7.01536 142.285 7.67402C142.909 8.31536 143.385 9.06069 143.715 9.91002C144.044 10.7594 144.209 11.6607 144.209 12.614C144.209 13.55 144.044 14.4427 143.715 15.292C143.385 16.1414 142.917 16.8954 142.311 17.554C141.704 18.1954 140.959 18.7067 140.075 19.088C139.191 19.4694 138.194 19.66 137.085 19.66ZM133.523 12.614C133.523 13.2207 133.609 13.7754 133.783 14.278C133.973 14.7634 134.225 15.188 134.537 15.552C134.866 15.916 135.247 16.202 135.681 16.41C136.114 16.6007 136.582 16.696 137.085 16.696C137.587 16.696 138.055 16.6007 138.489 16.41C138.922 16.202 139.295 15.916 139.607 15.552C139.936 15.188 140.187 14.7547 140.361 14.252C140.551 13.7494 140.647 13.1947 140.647 12.588C140.647 11.9987 140.551 11.4527 140.361 10.95C140.187 10.4474 139.936 10.014 139.607 9.65002C139.295 9.28602 138.922 9.00869 138.489 8.81802C138.055 8.61002 137.587 8.50602 137.085 8.50602C136.582 8.50602 136.114 8.61002 135.681 8.81802C135.247 9.02602 134.866 9.31202 134.537 9.67602C134.225 10.04 133.973 10.4734 133.783 10.976C133.609 11.4787 133.523 12.0247 133.523 12.614Z" fill="black"/>
</svg>
